<svg xmlns="http://www.w3.org/2000/svg" xmlns:svg="http://www.w3.org/2000/svg" id="svg491" width="128" height="128" fill="none" version="1.1" viewBox="0 0 128 128"><path id="path489" stroke="#ccc" stroke-linecap="round" stroke-linejoin="round" d="M 28,48 V 16 m 0,32 H 12 C 8,48 4,44 4,40 V 24 c 0,-4 4,-8 8,-8 h 16 m 0,32 h 16 c 4,0 8,-4 8,-8 V 24 c 0,-4 -4,-8 -8,-8 H 28 m 72,32 V 16 m 0,32 h 16 c 4,0 8,-4 8,-8 V 24 c 0,-4 -4,-8 -8,-8 h -16 m 0,32 H 84 c -4,0 -8,-4 -8,-8 V 24 c 0,-4 4,-8 8,-8 h 16 m -8,80 c 16,0 16,-24 16,-32 M 36,96 C 20,96 20,72 20,64 m 40,16 c -4,0 -8,4 -8,8 v 16 c 0,4 4,8 8,8 h 8 c 4,0 8,-4 8,-8 V 88 c 0,-4 -4,-8 -8,-8 z" style="stroke-width:8"/></svg>