<svg xmlns="http://www.w3.org/2000/svg" xmlns:svg="http://www.w3.org/2000/svg" id="svg616" width="128" height="128" fill="none" version="1.1" viewBox="0 0 128 128"><path id="path614" stroke="#ccc" stroke-linecap="round" stroke-linejoin="round" d="m 88.00012,24 v 56 m 0,-56 H 63.99988 m 24.00024,0 h 16 c 4.0016,0 8.0016,4 8,8 v 40 c 0,4 -3.9984,8 -8,8 h -16 m 0,0 H 63.99988 m -24,-56 v 56 m 0,-56 h 24 m -24,0 h -16 c -4.00008,0 -8,4 -8,8 0,12.88232 0,37.08232 0,40 0,4 3.99992,8 8,8 4.00008,0 8.04552,0 16,0 m 0,0 h 24 m 0,0 V 24 m -48,80 h 96.00024" style="stroke-width:8"/></svg>