<svg xmlns="http://www.w3.org/2000/svg" xmlns:svg="http://www.w3.org/2000/svg" id="svg741" width="128" height="128" fill="none" version="1.1" viewBox="0 0 128 128"><path id="path739" stroke="#ccc" stroke-linecap="round" stroke-linejoin="round" d="m 64,12 v 16 m 36,16 h 16 m -16,20 h 16 m -16,20 h 16 M 84,28 V 12 M 44,28 V 12 M 28,44 H 12 M 28,64 H 12 M 28,84 H 12 m 32,16 v 16 m 20,-16 v 16 m 20,-16 v 16 M 76,44 c 4,0 8,4 8,8 v 24 c 0,4 -4,8 -8,8 H 52 c -4,0 -8,-4 -8,-8 V 52 c 0,-4 4,-8 8,-8 z" style="stroke-width:8"/></svg>