<svg xmlns="http://www.w3.org/2000/svg" xmlns:svg="http://www.w3.org/2000/svg" id="svg6" x="0" y="0" version="1.1" viewBox="0 0 128 128" style="enable-background:new 0 0 128 128" xml:space="preserve"><style id="style1" type="text/css">.st0{stroke-linecap:round;stroke-linejoin:round}.st0,.st1{fill:none;stroke:#ccc;stroke-width:8}</style><path id="path2" d="M 88,84 64,108 40,84 m 48,0 H 40 m 48,0 h 4 c 4,0 8,-4 8,-8 V 20 c 0,-4 -4,-8 -8,-8 H 36 c -4,0 -8,4 -8,8 v 56 c 0,4 4,8 8,8 h 4" class="st0"/><circle id="circle4" cx="64" cy="64" r="20" class="st1"/><path style="fill:none;stroke:#ccc;stroke-width:8;stroke-linecap:butt;stroke-linejoin:miter;stroke-dasharray:none;stroke-opacity:1" id="path1" d="m 9.0510795,118.77526 c 5.0531825,0 17.4228245,-8.98236 27.4744595,-8.98236 10.051635,0 18.199077,8.98236 27.47446,8.98236 9.275383,0 17.698519,-8.98236 27.474461,-8.98236 9.77594,0 19.81986,8.98236 27.47446,8.98236"/></svg>