<svg xmlns="http://www.w3.org/2000/svg" xmlns:svg="http://www.w3.org/2000/svg" id="svg2" width="128" height="128" x="0" y="0" version="1.1" viewBox="0 0 128 128" xml:space="preserve"><style id="style1" type="text/css">.st0{fill:none;stroke:#ccc;stroke-width:60;stroke-linejoin:round;stroke-miterlimit:10}</style><g id="g2" transform="translate(-51,-52.999917)"><path id="path2" d="M 142.65789,144.65788 115,172.31576 87.342114,144.65788 m 55.315776,0 H 87.342114 m 55.315776,0 h 4.60965 c 4.60964,0 9.21929,-4.60964 9.21929,-9.2193 V 70.903532 c 0,-4.609648 -4.60965,-9.219295 -9.21929,-9.219295 H 82.732467 c -4.609648,0 -9.219295,4.609647 -9.219295,9.219295 v 64.535048 c 0,4.60966 4.609647,9.2193 9.219295,9.2193 h 4.609647" class="st0" style="fill:none;stroke:#05ae4b;stroke-width:8;stroke-linecap:round;stroke-linejoin:round;stroke-dasharray:none;stroke-opacity:1"/><path style="fill:none;stroke:#05ae4b;stroke-width:8;stroke-linecap:round;stroke-linejoin:miter;stroke-dasharray:none;stroke-opacity:1" id="path1" d="m 129.94217,85.439557 c -0.44583,-2.242627 -4.88536,-9.620832 -13.29875,-9.620832 -8.41339,0 -17.770608,9.46017 -19.017824,17.132623 -1.247216,7.672452 -1.239436,19.168522 3.573984,26.780102 3.43112,5.42569 10.30088,9.15441 15.06457,9.0577 4.76369,-0.0967 8.37652,-1.45306 10.6277,-2.6076 2.25118,-1.15454 3.22095,-2.75262 3.22095,-2.75262 v -17.64861 h -14.45174"/></g></svg>