<svg xmlns="http://www.w3.org/2000/svg" xmlns:svg="http://www.w3.org/2000/svg" id="svg2" width="128" height="128" x="0" y="0" version="1.1" viewBox="0 0 128 128" xml:space="preserve"><style id="style1" type="text/css"/><g id="g2" transform="translate(1.4159225,-0.681418)" style="stroke-width:9.5;stroke-dasharray:none"><path style="fill:none;stroke:#ccc;stroke-width:9.5;stroke-linecap:round;stroke-linejoin:round;stroke-dasharray:none;stroke-opacity:1" id="path1" d="m 27.02539,43.717846 c 19.211727,11.968348 31.148843,21.01892 31.148843,21.2988 0,0.279881 -12.171652,8.806106 -31.148843,20.628344"/><path style="fill:none;stroke:#ccc;stroke-width:9.5;stroke-linecap:round;stroke-linejoin:miter;stroke-dasharray:none;stroke-opacity:1" id="path2" d="M 62.140979,84.86359 H 98.142765"/></g><path id="rect2" d="m 30.822899,12.822899 h 66.354202 a 18,18 45 0 1 17.999999,18 V 97.177101 A 18,18 135 0 1 97.177101,115.1771 H 30.822899 a 18,18 45 0 1 -18,-17.999999 V 30.822899 a 18,18 135 0 1 18,-18 z" transform="matrix(1.0699952,0,0,1.0699952,-4.4796928,-4.4796928)" style="fill:none;stroke:#ccc;stroke-width:7.47667;stroke-linecap:round;stroke-linejoin:round;stroke-dasharray:none;stroke-dashoffset:3.20001;stroke-opacity:1"/></svg>