<svg xmlns="http://www.w3.org/2000/svg" xmlns:xlink="http://www.w3.org/1999/xlink" id="Layer_1" x="0" y="0" version="1.1" viewBox="0 0 34 34" style="enable-background:new 0 0 34 34" xml:space="preserve"><style type="text/css">.st0,.st1{fill:none;stroke:#ccc}.st0{stroke-width:2.5;stroke-linecap:round;stroke-miterlimit:10}.st1{stroke-width:2}</style><path d="M9.33,3.58c0,1.75-3.41,1.75-3.41,3.49c0,1.75,3.41,1.75,3.41,3.49c0,1.75-3.41,1.75-3.41,3.49	s3.41,1.75,3.41,3.49c0,1.75-3.41,1.75-3.41,3.49" class="st0"/><path d="M18.51,3.58c0,1.75-3.41,1.75-3.41,3.49c0,1.75,3.41,1.75,3.41,3.49c0,1.75-3.41,1.75-3.41,3.49	s3.41,1.75,3.41,3.49c0,1.75-3.41,1.75-3.41,3.49" class="st0"/><path d="M27.68,3.58c0,1.75-3.41,1.75-3.41,3.49c0,1.75,3.41,1.75,3.41,3.49c0,1.75-3.41,1.75-3.41,3.49	s3.41,1.75,3.41,3.49c0,1.75-3.41,1.75-3.41,3.49" class="st0"/><path d="M6.7,25.39h20.72c1.17,0,2.12,0.95,2.12,2.12v0c0,1.17-0.95,2.12-2.12,2.12H6.7c-1.17,0-2.12-0.95-2.12-2.12v0	C4.58,26.34,5.53,25.39,6.7,25.39z" class="st1"/></svg>