<svg xmlns="http://www.w3.org/2000/svg" xmlns:xlink="http://www.w3.org/1999/xlink" id="Layer_1" x="0" y="0" version="1.1" viewBox="0 0 88 88" style="enable-background:new 0 0 88 88" xml:space="preserve"><style type="text/css">.st0{fill-rule:evenodd;clip-rule:evenodd;fill:#ccc}</style><path d="M56.4,63.07l10.27-17.78c0.54-0.93,0.54-2.07,0-3L56.4,24.5c-0.54-0.93-1.53-1.5-2.6-1.5H33.27	c-1.07,0-2.06,0.57-2.6,1.5L20.4,42.28c-0.54,0.93-0.54,2.07,0,3l10.27,17.78c0.54,0.93,1.53,1.5,2.6,1.5H53.8	C54.88,64.57,55.87,64,56.4,63.07z M35.54,43.78c0,4.42,3.58,8,8,8s8-3.58,8-8s-3.58-8-8-8S35.54,39.37,35.54,43.78z" class="st0"/></svg>