<svg xmlns="http://www.w3.org/2000/svg" xmlns:svg="http://www.w3.org/2000/svg" id="svg2" width="128" height="128" x="0" y="0" version="1.1" viewBox="0 0 128 128" xml:space="preserve"><style id="style1" type="text/css">.st0,.st1{fill:none;stroke:#ccc;stroke-width:60;stroke-linejoin:round;stroke-miterlimit:10}.st1{stroke-linecap:round}</style><path id="polyline1" style="fill:none;stroke:#ccc;stroke-width:8;stroke-linejoin:round;stroke-miterlimit:10;stroke-dasharray:none" d="M 3.9999304,23.038275 12.504056,36.866697 4.282356,50.235873 12.692339,63.911214 3.9999304,78.0458 12.629579,92.078334 4.706621,104.96172" class="st0"/><path id="polyline2" style="fill:none;stroke:#ccc;stroke-width:8;stroke-linejoin:round;stroke-miterlimit:10;stroke-dasharray:none" d="m 124.00007,23.039375 -8.50429,13.828009 8.22184,13.36878 -8.41013,13.674934 8.69258,14.134166 -8.62981,14.032106 7.92434,12.88302" class="st0"/><g id="g2" transform="translate(-51,-52.999917)"><path id="path2" d="m 139,143 -24,24 -24,-24 m 48,0 H 91 m 48,0 h 4 c 4,0 8,-4 8,-8 V 79 c 0,-4 -4,-8 -8,-8 H 87 c -4,0 -8,4 -8,8 v 56 c 0,4 4,8 8,8 h 4" class="st0" style="fill:none;stroke:#ccc;stroke-width:8;stroke-linecap:round;stroke-linejoin:round"/><circle id="circle4" cx="115" cy="119" r="20" class="st1" style="fill:none;stroke:#ccc;stroke-width:8"/></g></svg>